<?xml version="1.0" encoding="UTF-8"?><svg width="134" height="155" xmlns="http://www.w3.org/2000/svg" xmlns:xlink="http://www.w3.org/1999/xlink"><defs><path id="a" d="M.00074172 2.20969856H131.068524V102.02547H.00074172z"/></defs><g fill="none" fill-rule="evenodd"><path stroke="#DDD" stroke-width="1.58" d="M9.58740596 67.4449534L54.6953213 9.36368384 114.936387 54.2529472"/><g transform="translate(0 52.372054)"><mask id="b" fill="#fff"><use xlink:href="#a"/></mask><path d="M.059279 24.0458934l9.34130094 71.9438088c.49318182 3.8045454 3.97217866 6.4818178 7.77429466 5.9886368L125.026207 87.9748903c3.799686-.4931818 6.476959-3.9721787 5.983777-7.7742947l-9.336442-71.94380877c-.495611-3.79968652-3.974608-6.48181818-7.779153-5.98863636L6.04791536 16.2715987C2.24336991 16.7647806-.43390282 20.2486364.059279 24.0458934" fill="#DDD" mask="url(#b)"/></g><path d="M2.68091693 68.6667324l9.16394987 70.6003136c.4858934 3.729232 3.9017241 6.360345 7.6333856 5.876881l105.8324446-13.741066c3.729232-.485893 6.360345-3.901724 5.876881-7.630956l-9.166379-70.5978842c-.483464-3.7316614-3.899295-6.3627743-7.630956-5.8768809L8.55779781 61.0357763c-3.72923198.4858934-6.36034483 3.9017242-5.87688088 7.6309561" fill="#FFF"/><path d="M60.458989 9.73077631c0 3.00282132-2.4318965 5.43471789-5.4322884 5.43471789-3.0052508 0-5.4371473-2.43189657-5.4371473-5.43471789 0-3.00039185 2.4318965-5.43471787 5.4371473-5.43471787 3.0003919 0 5.4322884 2.43432602 5.4322884 5.43471787" fill="#DDD"/><path stroke="#666" stroke-width="2" d="M9.58740596 61.7651023L54.6953213 3.68383274 114.936387 48.5730961"/><path d="M1.15836991 68.3574613L10.4972414 140.3037c.4956113 3.797257 3.9746081 6.481818 7.7767241 5.988636l107.8489025-14.005878c3.802116-.493182 6.481819-3.974608 5.988637-7.771865l-9.341301-71.9486678c-.493182-3.7996865-3.972179-6.4818182-7.774295-5.9837774L7.14700627 60.5807371c-3.80211599.4931818-6.48181818 3.9770376-5.98863636 7.7767242" stroke="#666" stroke-width="2" fill="#FFF"/><path d="M124.023082 124.991274l-9.197905-70.8229204L9.24867026 67.8754383l9.19317734 70.8229147 105.5812344-13.707079z" stroke="#7FDB65" stroke-width="2" fill="#FFF"/><g><path d="M60.4589893 6.6157127c0 3.00039185-2.43189652 5.4347179-5.43228837 5.4347179-3.00525078 0-5.43714733-2.43432605-5.43714733-5.4347179 0-3.00039185 2.43189655-5.4322884 5.43714733-5.4322884 3.00039185 0 5.43228837 2.43189655 5.43228837 5.4322884" fill="#FFF"/><path d="M60.4589893 6.6157127c0 3.00039185-2.43189652 5.4347179-5.43228837 5.4347179-3.00525078 0-5.43714733-2.43432605-5.43714733-5.4347179 0-3.00039185 2.43189655-5.4322884 5.43714733-5.4322884 3.00039185 0 5.43228837 2.43189655 5.43228837 5.4322884z" stroke="#666" stroke-width="2"/></g><path d="M42.50905046 96.48512065l-2.17778068-15.49571474 3.58873148-.50436331 5.12250375 7.13249825 2.002034 3.20859656.09506573-.01336062-.6607719-2.71849453c-.24550234-.99956548-.43282737-1.95882047-.56198066-2.8777939l-.76823552-5.46627974 3.32730071-.46762162 2.17778068 15.49571474-3.58873148.50436332-5.1258439-7.15626468-1.99535369-3.1610637-.09506573.01336062.3814939 1.58666674c.08976594.36740173.18285848.74467707.279278 1.13182779.24104879.9678768.42614707 1.9112877.55530035 2.83026103l.77157567 5.49004617-3.32730071.46762162zm22.14286515-2.8211464c-1.04572833.14696753-2.02650142.09496053-2.94234889-.15602259-.91584736-.25098313-1.73171327-.6816221-2.44762197-1.29192983-.7159087-.61030774-1.31432466-1.39060958-1.79526576-2.34092906-.48094108-.95031938-.81047794-2.05923723-.9886204-3.3267867-.17814246-1.26754946-.16647379-2.4203813.03500632-3.4585301.2014801-1.0381488.56386086-1.93732478 1.08715302-2.69755488.52329216-.7602301 1.19163606-1.3792648 2.0050515-1.85712263.81341555-.47785784 1.74297346-.79026583 2.78870179-.93723336 1.04572833-.14696753 2.02538815-.1028826 2.93900873.13225615.91362068.23513873 1.72725975.64993361 2.44094166 1.24439696.71368192.59446345 1.31042783 1.36288217 1.79025552 2.3052794.4798277.94239725.8076945 2.03943197.98361018 3.29113705.17814246 1.26754947.16703048 2.42434238-.03333624 3.47041333-.2003667 1.04607105-.56052072 1.96109111-1.08047271 2.74508775-.519952.78399663-1.18551236 1.42283647-1.99670113 1.9165387-.81118866.49370222-1.7396333.81403227-2.78536162.9609998zm-.42419961-3.01833708c1.06157271-.14919431 1.83729263-.72273068 2.32718308-1.7206263.48989045-.99789563.62460804-2.28112045.40415675-3.8497129-.21822451-1.55274805-.69753126-2.7214025-1.43793454-3.50599832-.74040329-.7845958-1.64137774-1.1022918-2.70295046-.95309748-1.06157262.1491943-1.84007607.70292552-2.33553347 1.66121022-.4954574.9582847-.6340718 2.21378232-.41584729 3.76653037.2204513 1.56859245.70365484 2.76497411 1.44962508 3.58918084.74597024.82420674 1.64972823 1.16170787 2.71130085 1.01251357zm11.7207066 1.13988621l-5.05351915-15.09155605 3.58873148-.50436332 2.08823661 7.09845531.3193056 1.19418296.33202387 1.19845448c.22558982.80039748.4438108 1.60585747.65466962 2.41640388l.09506573-.01336062.06142303-1.26586777.05631645-1.25909112c.03584233-.83713937.07620176-1.67086185.12107963-2.50119246l.64490325-7.48257308 2.9708042-.4175193 2.68239746 7.01495146c.17985515.5133004.35869032 1.03212452.5365078 1.5564792l.80387002 2.39543502c.09090233.26997582.18243055.5412105.2745849.81370508l.09506574-.01336061-.01652988-1.68880058-.00999932-.8280006c-.01057745-.82253688-.0171936-1.64561806-.0198489-2.46926832l.05074241-7.39906922 3.35106715-.47096177-.57912562 15.88317265-4.39679023.61792857L82.089667 83.7486127c-.21137257-.58427171-.41141566-1.1741658-.6001351-1.76969993-.18871944-.59553413-.36276954-1.17292416-.5221555-1.73218753l-.09506573.01336062-.04823891 1.81235123c-.01150492.41632149-.02853841.83162066-.05110094 1.24590292l-.49905728 7.85927528-4.32549093.6079081zm-42.61727718 28.2056748l-2.17778075-15.49571523 3.49366574-.4910027.83837883 5.96537535 5.34744757-.75153475-.83837882-5.96537534 3.51743218-.49434286 2.17778075 15.49571524-3.51743218.49434285-.908522-6.46446995-5.34744758.75153475.908522 6.46446995-3.49366574.4910027zm16.01857628-2.25126407l-2.17778075-15.49571524 3.49366574-.4910027 2.17778076 15.49571524-3.49366575.4910027zm7.15369653-1.00538648l-2.17778075-15.49571524 5.5851119-.78493629c.8239072-.1157926 1.6074423-.14512588 2.35062883-.08800072.74318662.05712515 1.4102888.23400112 2.00132665.53063325.59103785.29663214 1.0884152.73163864 1.49214714 1.30503426.4037318.57339463.67017031 1.31956726.79932365 2.23854098.1603281 1.14079377.04271787 2.11463026-.35283436 2.92153725-.39555238.806906-.98758731 1.45157017-1.77612291 1.93401019l4.38921248 5.70869633-3.92146155.55112548-3.7557405-5.1675926-1.92508112.2705525.78493629 5.5851119-3.49366575.4910027zm2.31793139-8.85678735l1.80624896-.25385173c.91897342-.1291533 1.5927984-.42177841 2.0214956-.8778813.42869715-.45610388.58960038-1.0644123.48271502-1.82494114-.1068855-.76052984-.42310452-1.25735069-.94866657-1.49047635-.5255621-.23312667-1.2478189-.28511186-2.16679231-.15595857l-1.80624896.25385173.61124826 4.34925736zm12.25089244 6.80927269L68.8944613 99.19131773l3.49366575-.4910027 2.17778075 15.49571524-3.49366574.4910027zm7.15369653-1.00538649l-2.17778076-15.49571523 3.58873148-.50436332 5.12250383 7.13249875 2.00203399 3.20859656.09506573-.01336062-.6607719-2.71849453c-.24550246-.99956637-.43282746-1.95882117-.56198066-2.8777939l-.76823558-5.46628023 3.3273007-.46762162 2.17778076 15.49571523-3.58873148.50436332-5.1258439-7.15626468-1.9953537-3.1610637-.09506573.01336062.3814939 1.58666664c.0897659.36740153.18285849.74467717.279278 1.13182789.24104865.96787581.42614702 1.91128731.55530035 2.83026103l.77157568 5.49004618-3.32730071.46762161zm22.68949312-2.89796996c-1.06157262.1491943-2.0797295.11859759-3.05450075-.09178894-.97477139-.21038752-1.84956018-.60043133-2.62439282-1.17014286-.77483268-.56971254-1.42591955-1.32241501-1.9532804-2.2581319-.52736077-.9357169-.882334-2.05317823-1.06492995-3.35241588-.1803693-1.28339434-.14320011-2.45596669.11150853-3.51775352.25470652-1.06178754.67768235-1.98967554 1.2689341-2.7836922.59125163-.79401764 1.32074525-1.4378034 2.1885026-1.93137722.86775748-.49357372 1.81656385-.81272622 2.8464478-.95746697 1.12495016-.15810143 2.1203901-.08795938 2.98634911.21042841.865959.2983878 1.58917912.6733797 2.16968318 1.12498727l-1.51604088 2.49123665c-.44509842-.29290682-.90616294-.52701436-1.3832067-.70232986-.4770443-.17531643-1.04828936-.21621047-1.71375287-.12268567-.60208595.08461766-1.13652575.27686626-1.6033349.57675402-.46680928.29988677-.85235689.68933067-1.15665422 1.16834541-.30429738.47901374-.51204817 1.04139411-.6232582 1.6871601-.11121018.64576501-.1122591 1.35682397-.00314684 2.1331981.22490485 1.60028112.75960177 2.78942536 1.6041069 3.56746984.8445051.77804347 1.99558137 1.06462965 3.4532632.85976583.31688737-.04453561.62028101-.12756791.91019014-.24909819.2899087-.12153122.51879256-.27487705.68665732-.46004132l-.3740973-2.66184057-2.56677502.3607367-.40081853-2.85197203 5.6564114-.79495678 1.00204633 7.1299301c-.46522512.5985741-1.11586221 1.1424139-1.95193038 1.63153418-.8360693.48911943-1.80071946.81049943-2.89398085.9641473z" fill="#51A33D" fill-rule="nonzero"/></g></svg>