<?xml version="1.0" encoding="UTF-8"?>
<svg width="215px" height="150px" viewBox="0 0 215 150" version="1.1" xmlns="http://www.w3.org/2000/svg" xmlns:xlink="http://www.w3.org/1999/xlink">
    <!-- Generator: sketchtool 58 (101010) - https://sketch.com -->
    <title>86A5538D-9A83-46AA-BE8A-EA8C9B311A40</title>
    <desc>Created with sketchtool.</desc>
    <g id="Homepage" stroke="none" stroke-width="1" fill="none" fill-rule="evenodd">
        <g transform="translate(-174.000000, -836.000000)" id="Highlight-">
            <g transform="translate(105.000000, 723.000000)">
                <g id="Group-5">
                    <g id="schedule" transform="translate(69.000000, 113.000000)">
                        <path d="M163.887517,13.001392 C161.949493,13.001392 158.388589,19.2663778 158.388589,29.5004737 C158.388589,39.7364062 161.949493,46.001392 163.887517,46.001392 C165.827685,46.001392 169.388589,39.7364062 169.388589,29.5004737 C169.388589,19.2663778 165.827685,13.001392 163.887517,13.001392 M163.74443,47.3977596 C158.654974,47.3977596 155.992222,38.0135961 155.992222,28.7449091 C155.992222,19.4762222 158.654974,10.0937569 163.74443,10.0937569 C168.835585,10.0937569 171.498337,19.4762222 171.498337,28.7449091 C171.498337,38.0135961 168.835585,47.3977596 163.74443,47.3977596" id="Fill-33" fill="#666666"></path>
                        <polygon id="Fill-35" fill="#FFFFFF" points="46.9428419 149.84562 203.175748 149.84562 203.175748 37.7654915 46.9428419 37.7654915"></polygon>
                        <polygon id="Fill-37" fill="#EEEEEE" points="200 40 46 40 46 72"></polygon>
                        <g id="Group-15" transform="translate(44.244658, 55.445513)" stroke="#CCCCCC" stroke-width="2">
                            <rect id="Rectangle" x="1.75534188" y="1.55448718" width="22" height="21"></rect>
                            <rect id="Rectangle" x="23.7553419" y="1.55448718" width="22" height="21"></rect>
                            <rect id="Rectangle" x="45.7553419" y="1.55448718" width="22" height="21"></rect>
                            <rect id="Rectangle" x="67.7553419" y="1.55448718" width="22" height="21"></rect>
                            <rect id="Rectangle" x="89.7553419" y="1.55448718" width="22" height="21"></rect>
                            <rect id="Rectangle" x="111.755342" y="1.55448718" width="22" height="21"></rect>
                            <rect id="Rectangle" x="133.755342" y="1.55448718" width="22" height="21"></rect>
                        </g>
                        <g id="Group-15" transform="translate(44.244658, 76.445513)" stroke="#CCCCCC" stroke-width="2">
                            <rect id="Rectangle" x="1.75534188" y="1.55448718" width="22" height="21"></rect>
                            <rect id="Rectangle" x="23.7553419" y="1.55448718" width="22" height="21"></rect>
                            <rect id="Rectangle" x="45.7553419" y="1.55448718" width="22" height="21"></rect>
                            <rect id="Rectangle" x="67.7553419" y="1.55448718" width="22" height="21"></rect>
                            <rect id="Rectangle" x="89.7553419" y="1.55448718" width="22" height="21"></rect>
                            <rect id="Rectangle" x="111.755342" y="1.55448718" width="22" height="21"></rect>
                            <rect id="Rectangle" x="133.755342" y="1.55448718" width="22" height="21"></rect>
                        </g>
                        <g id="Group-15" transform="translate(44.244658, 97.445513)" stroke="#CCCCCC" stroke-width="2">
                            <rect id="Rectangle" x="1.75534188" y="1.55448718" width="22" height="21"></rect>
                            <rect id="Rectangle" x="23.7553419" y="1.55448718" width="22" height="21"></rect>
                            <rect id="Rectangle" x="45.7553419" y="1.55448718" width="22" height="21"></rect>
                            <rect id="Rectangle" x="67.7553419" y="1.55448718" width="22" height="21"></rect>
                            <rect id="Rectangle" x="89.7553419" y="1.55448718" width="22" height="21"></rect>
                            <rect id="Rectangle" x="111.755342" y="1.55448718" width="22" height="21"></rect>
                            <rect id="Rectangle" x="133.755342" y="1.55448718" width="22" height="21"></rect>
                        </g>
                        <g id="Group-15" transform="translate(44.244658, 118.445513)" stroke="#CCCCCC" stroke-width="2">
                            <rect id="Rectangle" x="1.75534188" y="1.55448718" width="22" height="21"></rect>
                            <rect id="Rectangle" x="23.7553419" y="1.55448718" width="22" height="21"></rect>
                            <rect id="Rectangle" x="45.7553419" y="1.55448718" width="22" height="21"></rect>
                            <rect id="Rectangle" x="67.7553419" y="1.55448718" width="22" height="21"></rect>
                            <rect id="Rectangle" x="89.7553419" y="1.55448718" width="22" height="21"></rect>
                            <rect id="Rectangle" x="111.755342" y="1.55448718" width="22" height="21"></rect>
                            <rect id="Rectangle" x="133.755342" y="1.55448718" width="22" height="21"></rect>
                        </g>
                        <path d="M200.021548,141 C200.020597,140.982962 200.019578,140.965183 200.018481,140.946648 C200.005448,140.726442 200,140.59703 200,140.441176 L200,37.5588235 C200,37.4029697 200.005448,37.2735583 200.018481,37.0533517 C200.019578,37.0348171 200.020597,37.0170376 200.021548,37 L46.6595745,37 C46.2805996,37 46,37.2635647 46,37.5588235 L46,140.441176 C46,140.736435 46.2805996,141 46.6595745,141 L200.021548,141 Z" id="Fill-67" stroke="#666666" stroke-width="2"></path>
                        <path d="M45,142 L215,142 L215,145 C215,146.104569 214.104569,147 213,147 L50.8284271,147 C50.2979941,147 49.7892863,146.789286 49.4142136,146.414214 L45,142 L45,142 Z" id="Rectangle" fill="#666666"></path>
                        <path d="M48,142 L215,142 L215,143 C215,144.104569 214.104569,145 213,145 L51.8284271,145 C51.2979941,145 50.7892863,144.789286 50.4142136,144.414214 L48,142 L48,142 Z" id="Rectangle" fill="#CCCCCC"></path>
                        <path d="M213.546222,145.983531 C213.810799,145.922519 214,145.699496 214,145.441178 L214,42.6765735 C214,42.4272513 213.819095,42.2019618 213.549047,42.1357439 L213.415957,42.0930518 L200.696341,37.0075467 C200.528413,36.981344 200.355649,37.0242323 200.219951,37.1275991 C200.079765,37.2338265 200,37.392938 200,37.5589296 L200,140.441178 C200,140.745002 200.261734,141 200.6,141 L200.788381,141 L213.546222,145.983531 Z" id="Fill-68" stroke="#666666" stroke-width="2" fill="#EEEEEE"></path>
                        <path d="M205,141 C204.448,141 204,140.657212 204,140.234848 L204,40.7651515 C204,40.3427879 204.448,40 205,40 C205.552,40 206,40.3427879 206,40.7651515 L206,140.234848 C206,140.657212 205.552,141 205,141" id="Fill-27" fill="#CCCCCC"></path>
                        <path d="M209,143 C208.448,143 208,142.657212 208,142.234848 L208,42.7651515 C208,42.3427879 208.448,42 209,42 C209.552,42 210,42.3427879 210,42.7651515 L210,142.234848 C210,142.657212 209.552,143 209,143" id="Fill-27" fill="#CCCCCC"></path>
                        <path d="M46.4097272,39.3309434 L46.3987439,39.3308831 C44.8231764,39.3135772 43.0640605,39.2097011 40.8952872,38.9348121 C37.6912934,38.5287103 34.3838864,37.8270239 31.0606892,36.7609166 C21.9933023,33.8520288 14.126053,28.6945495 8.29858375,20.7573292 C4.19881792,15.173915 2.4550943,10.0349247 1.01636439,2.18016933 L0.800196625,1 L153.830571,1 L153.980964,1.81949483 C154.965295,7.18311795 157.813585,13.7444161 162.093855,19.5736563 C167.655575,27.148917 175.058821,32.073362 183.564064,34.8583674 C186.698283,35.8846539 189.815607,36.5604492 192.832339,36.9510265 C194.874754,37.2154587 196.525377,37.3146859 198.010983,37.3310037 L198,39.3309434 L46.4097272,39.3309434 Z" id="Fill-69" stroke="#666666" stroke-width="2" fill="#DDDDDD" stroke-linejoin="round"></path>
                        <path d="M63.4103807,32.5135099 C63.3418402,31.5812071 63.8053598,30.7440025 64.443135,30.6455078 C65.0902038,30.5521077 65.6547916,31.2211921 65.719847,32.1551932 C66.256554,39.5473871 71.0678911,44.3032083 71.7591046,44.3032083 C72.4015266,44.3032083 72.920808,45.0622964 72.920808,46.001392 C72.920808,46.9404877 72.4015266,47.6995758 71.7591046,47.6995758 C68.7096332,47.6995758 63.8878408,39.1024629 63.4103807,32.5135099 Z" id="Fill-71" fill="#666666"></path>
                        <path d="M68.0755501,29.9562236 C68.0755501,27.9489704 66.4503882,26.3238085 64.443135,26.3238085 C62.43758,26.3238085 60.8107199,27.9489704 60.8107199,29.9562236 C60.8107199,31.9634768 62.43758,33.5903369 64.443135,33.5903369 C66.4503882,33.5903369 68.0755501,31.9634768 68.0755501,29.9562236" id="Fill-72" fill="#666666"></path>
                        <path d="M76.553223,46.9098714 C76.553223,44.9043163 74.926363,43.2774563 72.9191098,43.2774563 C70.9135548,43.2774563 69.2883929,44.9043163 69.2883929,46.9098714 C69.2883929,48.9171246 70.9135548,50.5439846 72.9191098,50.5439846 C74.926363,50.5439846 76.553223,48.9171246 76.553223,46.9098714" id="Fill-73" fill="#666666"></path>
                        <path d="M157,32.7543945 C156.674636,28.3617591 157.025666,27.7390917 158.053089,30.8863924 C158.875975,31.2701819 159.309925,31.7734104 159.354939,32.3960777 C159.903398,39.7882718 163.553214,44.0010527 164.258037,44.0010527 C164.913108,44.0010527 165.442614,44.7601408 165.442614,45.6992365 C165.442614,46.6383321 164.913108,47.3974203 164.258037,47.3974203 C161.149708,47.3974203 157.488046,39.3433477 157,32.7543945 Z" id="Fill-74" fill="#666666"></path>
                        <path d="M161.32316,29.9562236 C161.32316,27.9489704 159.6963,26.3238085 157.689047,26.3238085 C155.683492,26.3238085 154.05833,27.9489704 154.05833,29.9562236 C154.05833,31.9634768 155.683492,33.5903369 157.689047,33.5903369 C159.6963,33.5903369 161.32316,31.9634768 161.32316,29.9562236" id="Fill-75" fill="#666666"></path>
                        <path d="M169.800833,46.9098714 C169.800833,44.9043163 168.173973,43.2774563 166.16672,43.2774563 C164.161165,43.2774563 162.534305,44.9043163 162.534305,46.9098714 C162.534305,48.9171246 164.161165,50.5439846 166.16672,50.5439846 C168.173973,50.5439846 169.800833,48.9171246 169.800833,46.9098714" id="Fill-76" fill="#666666"></path>
                        <path d="M145.790783,62.7738665 C142.720466,62.7738665 140.224136,65.2718948 140.224136,68.3405128 C140.224136,71.4125272 142.720466,73.9105556 145.790783,73.9105556 C148.862797,73.9105556 151.359127,71.4125272 151.359127,68.3405128 C151.359127,65.2718948 148.862797,62.7738665 145.790783,62.7738665 M145.790783,77.3069231 C140.849068,77.3069231 136.827769,73.2839257 136.827769,68.3405128 C136.827769,63.3987981 140.849068,59.3774989 145.790783,59.3774989 C150.734196,59.3774989 154.755495,63.3987981 154.755495,68.3405128 C154.755495,73.2839257 150.734196,77.3069231 145.790783,77.3069231" id="Fill-77" fill="#7FDB65"></path>
                        <path d="M52.9479903,117.691212 C52.5438226,117.691212 52.1362585,117.546867 51.8119054,117.254779 C51.1156501,116.628149 51.05961,115.553199 51.6862398,114.856944 L62.5851832,102.745497 C63.2135112,102.047543 64.2850651,101.993202 64.9830186,102.619831 C65.679274,103.246461 65.735314,104.321412 65.1086842,105.017667 L54.2097409,117.129113 C53.8751987,117.502714 53.4115945,117.691212 52.9479903,117.691212" id="Fill-78" fill="#7FDB65"></path>
                        <path d="M64.4521664,117.08598 C64.0479987,117.08598 63.6404346,116.941634 63.3160815,116.649546 L51.2063331,105.750603 C50.5100777,105.123973 50.4540377,104.049023 51.0806675,103.352768 C51.7072973,102.656512 52.7822476,102.600472 53.4785029,103.227102 L65.5882513,114.126045 C66.2845067,114.752675 66.3405467,115.827625 65.7139169,116.523881 C65.3793747,116.897481 64.9157706,117.08598 64.4521664,117.08598" id="Fill-79" fill="#7FDB65"></path>
                        <path d="M73.7373551,75.883445 C73.3331874,75.883445 72.9256233,75.7390994 72.6012702,75.4470118 C71.9050149,74.820382 71.8489748,73.7454317 72.4756046,73.0491763 L83.374548,60.9394279 C84.002876,60.2414744 85.0744299,60.1871325 85.7723834,60.8137623 C86.4686388,61.4403921 86.5246788,62.5153425 85.898049,63.2115978 L74.9991057,75.3213462 C74.6645635,75.6949466 74.2009593,75.883445 73.7373551,75.883445" id="Fill-80" fill="#7FDB65"></path>
                        <path d="M84.1054463,74.8416093 L71.9939997,63.9426659 C71.2977443,63.3160361 71.2417043,62.2410858 71.8683341,61.5448304 C72.4949639,60.8468769 73.5699142,60.792535 74.2661696,61.4191649 L86.3776161,72.3181082 C87.0738715,72.944738 87.1299115,74.0196884 86.5032817,74.7159437 C86.1687395,75.0895441 85.7051354,75.2780425 85.2415312,75.2780425 C84.8373635,75.2780425 84.4297994,75.1336969 84.1054463,74.8416093 Z" id="Fill-81" fill="#7FDB65"></path>
                        <path d="M144.580147,114.479049 C144.130129,114.479049 143.69879,114.302438 143.379532,113.981481 L138.534613,109.138261 C137.872322,108.475969 137.872322,107.401019 138.534613,106.737029 C139.198603,106.074737 140.273553,106.074737 140.935845,106.737029 L144.439198,110.238684 L152.942004,99.6097517 C153.529576,98.8812309 154.596035,98.7589616 155.329651,99.344835 C156.061568,99.9324066 156.180441,101.000564 155.594567,101.732481 L145.906429,113.84223 C145.60585,114.219227 145.155832,114.448481 144.675246,114.475652 C144.64298,114.477351 144.612413,114.479049 144.580147,114.479049" id="Fill-82" fill="#7FDB65"></path>
                        <path d="M164.377864,139.278464 C163.927846,139.278464 163.494809,139.101853 163.177248,138.780896 L158.33233,133.935978 C157.670039,133.273686 157.670039,132.198736 158.33233,131.534746 C158.99632,130.872454 160.07127,130.872454 160.733562,131.534746 L164.236915,135.038099 L172.739721,124.407469 C173.327293,123.678948 174.393752,123.556679 175.127368,124.142552 C175.859285,124.730124 175.978158,125.798281 175.392284,126.530198 L165.704146,138.641645 C165.403567,139.018642 164.953549,139.247897 164.472963,139.275067 C164.440697,139.276766 164.41013,139.278464 164.377864,139.278464" id="Fill-83" fill="#7FDB65"></path>
                        <path d="M145.369512,92.3246413 C142.883371,92.3246413 141.550297,91.0798726 140.577238,90.167948 C139.748524,89.3952744 139.249258,88.9282738 138.101286,88.9282738 C136.955012,88.9282738 136.454047,89.3952744 135.627032,90.167948 C134.652275,91.0798726 133.320898,92.3246413 130.833059,92.3246413 C128.348616,92.3246413 127.013844,91.0781745 126.040785,90.167948 C125.215467,89.3935762 124.716201,88.9282738 123.571625,88.9282738 C122.63253,88.9282738 121.873442,88.1691857 121.873442,87.2300901 C121.873442,86.2909944 122.63253,85.5319063 123.571625,85.5319063 C126.057767,85.5319063 127.389143,86.776675 128.360504,87.6885997 C129.189217,88.4612733 129.688483,88.9282738 130.833059,88.9282738 C131.979333,88.9282738 132.480297,88.4612733 133.307313,87.6885997 C134.28207,86.776675 135.613447,85.5319063 138.101286,85.5319063 C140.589125,85.5319063 141.922199,86.776675 142.895258,87.6885997 C143.722274,88.4612733 144.223238,88.9282738 145.369512,88.9282738 C146.308608,88.9282738 147.067696,89.687362 147.067696,90.6264576 C147.067696,91.5655532 146.308608,92.3246413 145.369512,92.3246413" id="Fill-84" fill="#7FDB65"></path>
                        <path d="M125.6265,133.920245 C122.831289,133.920245 121.345378,132.78416 120.153253,131.872235 C119.129249,131.089373 118.38884,130.523878 116.744999,130.523878 C115.09776,130.523878 114.357352,131.089373 113.333347,131.873934 C112.141222,132.785858 110.65701,133.920245 107.860101,133.920245 C105.066589,133.920245 103.584074,132.78416 102.390251,131.872235 C101.367945,131.089373 100.627537,130.523878 98.9853928,130.523878 C98.0462972,130.523878 97.2872091,129.764789 97.2872091,128.825694 C97.2872091,127.886598 98.0462972,127.12751 98.9853928,127.12751 C101.778905,127.12751 103.263118,128.263595 104.453545,129.17552 C105.477549,129.958382 106.216259,130.523878 107.860101,130.523878 C109.505641,130.523878 110.244351,129.958382 111.270054,129.17552 C112.462179,128.263595 113.94809,127.12751 116.744999,127.12751 C119.540209,127.12751 121.024422,128.263595 122.216547,129.17552 C123.24225,129.958382 123.98096,130.523878 125.6265,130.523878 C126.565595,130.523878 127.324683,131.282966 127.324683,132.222061 C127.324683,133.161157 126.565595,133.920245 125.6265,133.920245" id="Fill-85" fill="#7FDB65"></path>
                        <path d="M62.4438143,86.994552 L51.5448709,86.994552 C50.6057753,86.994552 49.8466871,86.2354638 49.8466871,85.2963682 C49.8466871,84.3572726 50.6057753,83.5981845 51.5448709,83.5981845 L62.4438143,83.5981845 C63.3829099,83.5981845 64.141998,84.3572726 64.141998,85.2963682 C64.141998,86.2354638 63.3829099,86.994552 62.4438143,86.994552" id="Fill-86" fill="#7FDB65"></path>
                        <path d="M58.8102105,94.2598916 L51.5453803,94.2598916 C50.6062847,94.2598916 49.8471966,93.5008034 49.8471966,92.5617078 C49.8471966,91.6226122 50.6062847,90.863524 51.5453803,90.863524 L58.8102105,90.863524 C59.7493061,90.863524 60.5083942,91.6226122 60.5083942,92.5617078 C60.5083942,93.5008034 59.7493061,94.2598916 58.8102105,94.2598916" id="Fill-87" fill="#7FDB65"></path>
                    </g>
                </g>
            </g>
        </g>
    </g>
</svg>