<?xml version="1.0" encoding="UTF-8"?>
<svg width="149px" height="157px" viewBox="0 0 149 157" version="1.1" xmlns="http://www.w3.org/2000/svg" xmlns:xlink="http://www.w3.org/1999/xlink">
    <!-- Generator: sketchtool 58 (101010) - https://sketch.com -->
    <title>7A4D789B-A730-4EB9-ACB0-E99D3ECDA8FD</title>
    <desc>Created with sketchtool.</desc>
    <g id="Homepage" stroke="none" stroke-width="1" fill="none" fill-rule="evenodd">
        <g transform="translate(-646.000000, -834.000000)" id="Highlight-">
            <g transform="translate(105.000000, 723.000000)">
                <g id="Group-5" transform="translate(420.000000, 0.000000)">
                    <g id="timeclock" transform="translate(121.000000, 111.000000)">
                        <polygon id="Fill-1" fill="#FFFFFF" points="61.052 57 99.052 57 99.052 1 61.052 1"></polygon>
                        <path d="M99.0519,22 L61.0519,22 C60.4989,22 60.0519,21.553 60.0519,21 C60.0519,20.447 60.4989,20 61.0519,20 L99.0519,20 C99.6049,20 100.0519,20.447 100.0519,21 C100.0519,21.553 99.6049,22 99.0519,22" id="Fill-2" fill="#DDDDDD"></path>
                        <path d="M99.0519,34 L61.0519,34 C60.4989,34 60.0519,33.553 60.0519,33 C60.0519,32.447 60.4989,32 61.0519,32 L99.0519,32 C99.6049,32 100.0519,32.447 100.0519,33 C100.0519,33.553 99.6049,34 99.0519,34" id="Fill-4" fill="#C9F9BB"></path>
                        <path d="M99.0519,46 L61.0519,46 C60.4989,46 60.0519,45.553 60.0519,45 C60.0519,44.447 60.4989,44 61.0519,44 L99.0519,44 C99.6049,44 100.0519,44.447 100.0519,45 C100.0519,45.553 99.6049,46 99.0519,46" id="Fill-6" fill="#C9F9BB"></path>
                        <path d="M99.0519,10 L61.0519,10 C60.4989,10 60.0519,9.553 60.0519,9 C60.0519,8.447 60.4989,8 61.0519,8 L99.0519,8 C99.6049,8 100.0519,8.447 100.0519,9 C100.0519,9.553 99.6049,10 99.0519,10" id="Fill-8" fill="#DDDDDD"></path>
                        <path d="M62.052,56 L98.052,56 L98.052,2 L62.052,2 L62.052,56 Z M99.052,58 L61.052,58 C60.499,58 60.052,57.553 60.052,57 L60.052,1 C60.052,0.447 60.499,0 61.052,0 L99.052,0 C99.605,0 100.052,0.447 100.052,1 L100.052,57 C100.052,57.553 99.605,58 99.052,58 L99.052,58 Z" id="Fill-10" fill="#999999"></path>
                        <path d="M82.0519,16 L76.0519,16 C75.4989,16 75.0519,15.553 75.0519,15 C75.0519,14.447 75.4989,14 76.0519,14 L82.0519,14 C82.6049,14 83.0519,14.447 83.0519,15 C83.0519,15.553 82.6049,16 82.0519,16" id="Fill-12" fill="#9FF487"></path>
                        <path d="M94.0519,16 L88.0519,16 C87.4989,16 87.0519,15.553 87.0519,15 C87.0519,14.447 87.4989,14 88.0519,14 L94.0519,14 C94.6049,14 95.0519,14.447 95.0519,15 C95.0519,15.553 94.6049,16 94.0519,16" id="Fill-13" fill="#9FF487"></path>
                        <path d="M70.0519,15 C70.0519,13.896 69.1559,13 68.0519,13 C66.9479,13 66.0519,13.896 66.0519,15 C66.0519,16.104 66.9479,17 68.0519,17 C69.1559,17 70.0519,16.104 70.0519,15" id="Fill-14" fill="#9FF487"></path>
                        <path d="M82.0519,28 L76.0519,28 C75.4989,28 75.0519,27.553 75.0519,27 C75.0519,26.447 75.4989,26 76.0519,26 L82.0519,26 C82.6049,26 83.0519,26.447 83.0519,27 C83.0519,27.553 82.6049,28 82.0519,28" id="Fill-15" fill="#9FF487"></path>
                        <path d="M94.0519,28 L88.0519,28 C87.4989,28 87.0519,27.553 87.0519,27 C87.0519,26.447 87.4989,26 88.0519,26 L94.0519,26 C94.6049,26 95.0519,26.447 95.0519,27 C95.0519,27.553 94.6049,28 94.0519,28" id="Fill-16" fill="#9FF487"></path>
                        <path d="M70.0519,27 C70.0519,25.896 69.1559,25 68.0519,25 C66.9479,25 66.0519,25.896 66.0519,27 C66.0519,28.104 66.9479,29 68.0519,29 C69.1559,29 70.0519,28.104 70.0519,27" id="Fill-17" fill="#9FF487"></path>
                        <path d="M82.0519,40 L76.0519,40 C75.4989,40 75.0519,39.553 75.0519,39 C75.0519,38.447 75.4989,38 76.0519,38 L82.0519,38 C82.6049,38 83.0519,38.447 83.0519,39 C83.0519,39.553 82.6049,40 82.0519,40" id="Fill-18" fill="#9FF487"></path>
                        <path d="M94.0519,40 L88.0519,40 C87.4989,40 87.0519,39.553 87.0519,39 C87.0519,38.447 87.4989,38 88.0519,38 L94.0519,38 C94.6049,38 95.0519,38.447 95.0519,39 C95.0519,39.553 94.6049,40 94.0519,40" id="Fill-19" fill="#9FF487"></path>
                        <path d="M70.0519,39 C70.0519,37.896 69.1559,37 68.0519,37 C66.9479,37 66.0519,37.896 66.0519,39 C66.0519,40.104 66.9479,41 68.0519,41 C69.1559,41 70.0519,40.104 70.0519,39" id="Fill-20" fill="#9FF487"></path>
                        <path d="M82.0519,52 L76.0519,52 C75.4989,52 75.0519,51.553 75.0519,51 C75.0519,50.447 75.4989,50 76.0519,50 L82.0519,50 C82.6049,50 83.0519,50.447 83.0519,51 C83.0519,51.553 82.6049,52 82.0519,52" id="Fill-21" fill="#9FF487"></path>
                        <path d="M94.0519,52 L88.0519,52 C87.4989,52 87.0519,51.553 87.0519,51 C87.0519,50.447 87.4989,50 88.0519,50 L94.0519,50 C94.6049,50 95.0519,50.447 95.0519,51 C95.0519,51.553 94.6049,52 94.0519,52" id="Fill-22" fill="#9FF487"></path>
                        <path d="M70.0519,51 C70.0519,49.896 69.1559,49 68.0519,49 C66.9479,49 66.0519,49.896 66.0519,51 C66.0519,52.104 66.9479,53 68.0519,53 C69.1559,53 70.0519,52.104 70.0519,51" id="Fill-23" fill="#9FF487"></path>
                        <path d="M94.0519,6 L77.0519,6 C76.4989,6 76.0519,5.553 76.0519,5 C76.0519,4.447 76.4989,4 77.0519,4 L94.0519,4 C94.6049,4 95.0519,4.447 95.0519,5 C95.0519,5.553 94.6049,6 94.0519,6" id="Fill-24" fill="#C9F9BB"></path>
                        <path d="M123.7296,156 L20.9266,156 C15.2256,156 9.9056,153.187 6.6956,148.477 C3.4846,143.767 2.8116,137.787 4.8966,132.48 L35.3936,54.852 L121.7686,57.371 L91.2716,135 C90.0026,138.231 90.3966,141.729 92.3516,144.597 C94.3066,147.466 97.4186,149.111 100.8906,149.111 L123.7296,149.111 L123.7296,156 Z" id="Fill-25" fill="#FFFFFF"></path>
                        <path d="M91.2726,135 L100.0516,112.651 L100.0516,109 L14.1216,109 L4.8966,132.48 C4.0686,134.588 3.6826,136.802 3.7106,139 L90.5556,139 C90.5306,137.662 90.7566,136.311 91.2726,135" id="Fill-26" fill="#CCCCCC"></path>
                        <path d="M36.0675,55.8721 L5.8275,132.8461 C3.8635,137.8441 4.4975,143.4761 7.5215,147.9131 C10.5455,152.3511 15.5565,155.0001 20.9265,155.0001 L122.7295,155.0001 L122.7295,150.1111 L100.8905,150.1111 C97.0835,150.1111 93.6705,148.3071 91.5255,145.1601 C89.3805,142.0161 88.9495,138.1791 90.3405,134.6351 L120.3175,58.3291 L36.0675,55.8721 Z M123.7295,157.0001 L20.9265,157.0001 C14.8945,157.0001 9.2655,154.0241 5.8695,149.0401 C2.4715,144.0561 1.7595,137.7281 3.9655,132.1151 L34.4635,54.4861 C34.6175,54.0941 35.0145,53.8351 35.4225,53.8503983 L121.7975,56.3711 C122.1235,56.3811 122.4235,56.5491 122.6025,56.8201 C122.7825,57.0921 122.8185,57.4341 122.6995,57.7361 L92.2025,135.3651 C91.0565,138.2841 91.4125,141.4431 93.1775,144.0331 C94.9435,146.6251 97.7555,148.1111 100.8905,148.1111 L123.7295,148.1111 C124.2825,148.1111 124.7295,148.5591 124.7295,149.1111 L124.7295,156.0001 C124.7295,156.5531 124.2825,157.0001 123.7295,157.0001 L123.7295,157.0001 Z" id="Fill-27" fill="#666666"></path>
                        <path d="M41.0636,156 L18.2236,156 C12.5236,156 7.2026,153.187 3.9926,148.477 C0.7826,143.767 0.1096,137.787 2.1946,132.48 L32.6916,54.852 L39.1026,57.371 L8.6056,135 C7.3356,138.231 7.7296,141.729 9.6846,144.597 C11.6396,147.466 14.7516,149.111 18.2236,149.111 L41.0636,149.111 L41.0636,156 Z" id="Fill-28" fill="#DDDDDD"></path>
                        <path d="M33.2569,56.1484 L3.1249,132.8454 C1.1609,137.8434 1.7949,143.4764 4.8189,147.9134 C7.8419,152.3504 12.8539,155.0004 18.2239,155.0004 L40.0639,155.0004 L40.0639,150.1114 L18.2239,150.1114 C14.4159,150.1114 11.0029,148.3064 8.8589,145.1604 C6.7139,142.0144 6.2819,138.1784 7.6749,134.6344 L37.8069,57.9364 L33.2569,56.1484 Z M41.0639,157.0004 L18.2239,157.0004 C12.1919,157.0004 6.5629,154.0244 3.1659,149.0404 C-0.2301,144.0554 -0.9421,137.7284 1.2639,132.1154 L31.7609,54.4864 C31.8579,54.2394 32.0489,54.0414 32.2919,53.9344 C32.5349,53.8284 32.8109,53.8254 33.0579,53.9204 L39.4689,56.4404 C39.9829,56.6424 40.2359,57.2224 40.0329,57.7364 L9.5359,135.3654 C8.3899,138.2844 8.7449,141.4434 10.5109,144.0334 C12.2769,146.6254 15.0879,148.1114 18.2239,148.1114 L41.0639,148.1114 C41.6159,148.1114 42.0639,148.5584 42.0639,149.1114 L42.0639,156.0004 C42.0639,156.5524 41.6159,157.0004 41.0639,157.0004 L41.0639,157.0004 Z" id="Fill-29" fill="#666666"></path>
                        <path d="M133.7853,156 L37.8963,156 C36.7923,156 35.8963,155.104 35.8963,154 L35.8963,151.111 C35.8963,150.007 36.7923,149.111 37.8963,149.111 L133.7853,149.111 C134.8893,149.111 135.7853,150.007 135.7853,151.111 L135.7853,154 C135.7853,155.104 134.8893,156 133.7853,156" id="Fill-30" fill="#FFFFFF"></path>
                        <path d="M37.8966,150.1113 C37.3446,150.1113 36.8966,150.5593 36.8966,151.1113 L36.8966,154.0003 C36.8966,154.5513 37.3446,155.0003 37.8966,155.0003 L133.7856,155.0003 C134.3366,155.0003 134.7856,154.5513 134.7856,154.0003 L134.7856,151.1113 C134.7856,150.5593 134.3366,150.1113 133.7856,150.1113 L37.8966,150.1113 Z M133.7856,157.0003 L37.8966,157.0003 C36.2426,157.0003 34.8966,155.6543 34.8966,154.0003 L34.8966,151.1113 C34.8966,149.4573 36.2426,148.1113 37.8966,148.1113 L133.7856,148.1113 C135.4396,148.1113 136.7856,149.4573 136.7856,151.1113 L136.7856,154.0003 C136.7856,155.6543 135.4396,157.0003 133.7856,157.0003 L133.7856,157.0003 Z" id="Fill-31" fill="#666666"></path>
                        <path d="M134.0519,128 L21.0519,128 C16.6339,128 13.0519,124.418 13.0519,120 L13.0519,44 C13.0519,42.153 13.8859,40.501 15.1979,39.4 C16.2409,38.526 23.5849,32 25.0519,32 L134.0519,38 C137.3649,38 140.0519,40.687 140.0519,44 L146.0519,119 C146.0519,120.719 139.3289,125.269 138.1719,126.362 C137.0969,127.378 135.6469,128 134.0519,128" id="Fill-32" fill="#DDDDDD"></path>
                        <path d="M13.0519,100.2949 L23.1929,96.4919 C23.1999,96.4889 23.2039,96.4839 23.2119,96.4809 C23.2519,96.4649 23.2839,96.4379 23.3219,96.4159 C23.3929,96.3759 23.4619,96.3359 23.5209,96.2809 C23.5539,96.2499 23.5769,96.2129 23.6069,96.1769 C23.6539,96.1169 23.6979,96.0589 23.7319,95.9899 C23.7529,95.9459 23.7659,95.8999 23.7809,95.8539 C23.8039,95.7809 23.8199,95.7089 23.8249,95.6319 C23.8269,95.6059 23.8409,95.5829 23.8409,95.5559 L23.8409,82.0559 C23.8409,80.4739 22.6069,79.1879 21.0519,79.0769 L21.0509,72.4789 C21.0829,70.0659 20.0259,67.8899 18.1489,66.5049 C16.7139,65.4469 14.9109,64.9479 13.0519,65.0239 L13.0519,71.0239 C13.6539,70.9489 14.2099,71.0559 14.5889,71.3359 C14.8089,71.4969 15.0599,71.7669 15.0509,72.4379 L15.0519,79.3239 L13.0519,80.0699 L13.0519,100.2949 Z" id="Fill-33" fill="#999999"></path>
                        <path d="M24.9972,32.998 C24.6012,33.072 23.0752,34.002 18.5512,38.016 C18.1682,38.354 17.8702,38.619 17.6942,38.767 C17.0862,39.276 14.0522,42.022 14.0522,46 L14.0522,120 C14.0522,123.859 17.1922,127 21.0522,127 L134.0522,127 C135.3342,127 136.5542,126.516 137.4852,125.636 C137.8212,125.317 138.4672,124.823 139.3592,124.14 C140.8442,123.004 144.7622,120.004 145.0482,118.987 L139.0552,44.08 C139.0522,41.243 136.8092,39 134.0522,39 L24.9972,32.998 Z M134.0522,129 L21.0522,129 C16.0892,129 12.0522,124.963 12.0522,120 L12.0522,46 C12.0522,41.256 15.3872,38.091 16.4092,37.233 C16.5762,37.094 16.8592,36.842 17.2242,36.519 C21.8172,32.444 23.8662,31 25.0522,31 L134.1062,37.002 L134.1092,37.002 C137.9132,37.002 141.0522,40.141 141.0522,44 L147.049203,118.92 C147.0522,120.505 144.9642,122.368 140.5752,125.727 C139.7942,126.326 139.1192,126.843 138.8582,127.089 C137.5542,128.321 135.8472,129 134.0522,129 L134.0522,129 Z" id="Fill-34" fill="#666666"></path>
                        <path d="M141.0519,122 L26.0519,122 C22.7389,122 20.0519,119.313 20.0519,116 L20.0519,38 C20.0519,34.687 22.7389,32 26.0519,32 L141.0519,32 C144.3649,32 147.0519,34.687 147.0519,38 L147.0519,116 C147.0519,119.313 144.3649,122 141.0519,122" id="Fill-35" fill="#FFFFFF"></path>
                        <path d="M26.0519,33 C23.2949,33 21.0519,35.243 21.0519,38 L21.0519,116 C21.0519,118.757 23.2949,121 26.0519,121 L141.0519,121 C143.8089,121 146.0519,118.757 146.0519,116 L146.0519,38 C146.0519,35.243 143.8089,33 141.0519,33 L26.0519,33 Z M141.0519,123 L26.0519,123 C22.1929,123 19.0519,119.859 19.0519,116 L19.0519,38 C19.0519,34.141 22.1929,31 26.0519,31 L141.0519,31 C144.9109,31 148.0519,34.141 148.0519,38 L148.0519,116 C148.0519,119.859 144.9109,123 141.0519,123 L141.0519,123 Z" id="Fill-36" fill="#666666"></path>
                        <polygon id="Fill-37" fill="#EEEEEE" points="35.052 112 125.052 112 125.052 42 35.052 42"></polygon>
                        <path d="M80.0519,54 C79.4989,54 79.0519,53.553 79.0519,53 L79.0519,49 C79.0519,48.447 79.4989,48 80.0519,48 C80.6049,48 81.0519,48.447 81.0519,49 L81.0519,53 C81.0519,53.553 80.6049,54 80.0519,54" id="Fill-38" fill="#7FDB65"></path>
                        <path d="M68.0528,57.2158 C67.7068,57.2158 67.3708,57.0358 67.1858,56.7158 L65.1858,53.2508 C64.9088,52.7728 65.0738,52.1608 65.5518,51.8848 C66.0288,51.6088 66.6408,51.7728 66.9178,52.2508 L68.9178,55.7158 C69.1948,56.1948 69.0308,56.8058 68.5518,57.0818 C68.3948,57.1728 68.2228,57.2158 68.0528,57.2158" id="Fill-39" fill="#7FDB65"></path>
                        <path d="M59.2667,66 C59.0967,66 58.9247,65.957 58.7677,65.866 L55.3027,63.866 C54.8247,63.59 54.6607,62.979 54.9367,62.5 C55.2127,62.021 55.8257,61.857 56.3027,62.134 L59.7677,64.134 C60.2457,64.41 60.4107,65.021 60.1337,65.5 C59.9487,65.82 59.6127,66 59.2667,66" id="Fill-40" fill="#7FDB65"></path>
                        <path d="M56.0519,78 L52.0519,78 C51.4989,78 51.0519,77.553 51.0519,77 C51.0519,76.447 51.4989,76 52.0519,76 L56.0519,76 C56.6049,76 57.0519,76.447 57.0519,77 C57.0519,77.553 56.6049,78 56.0519,78" id="Fill-41" fill="#7FDB65"></path>
                        <path d="M55.8038,92 C55.4578,92 55.1218,91.82 54.9368,91.5 C54.6598,91.021 54.8248,90.41 55.3028,90.134 L58.7678,88.134 C59.2428,87.857 59.8568,88.022 60.1338,88.5 C60.4098,88.979 60.2458,89.59 59.7678,89.866 L56.3028,91.866 C56.1458,91.957 55.9738,92 55.8038,92" id="Fill-42" fill="#7FDB65"></path>
                        <path d="M66.0509,102.249 C65.8809,102.249 65.7089,102.206 65.5519,102.115 C65.0729,101.839 64.9089,101.228 65.1859,100.749 L67.1859,97.284 C67.4619,96.806 68.0739,96.641 68.5519,96.918 C69.0299,97.194 69.1949,97.806 68.9179,98.284 L66.9179,101.749 C66.7329,102.069 66.3969,102.249 66.0509,102.249" id="Fill-43" fill="#7FDB65"></path>
                        <path d="M80.0519,106 C79.4989,106 79.0519,105.553 79.0519,105 L79.0519,101 C79.0519,100.447 79.4989,100 80.0519,100 C80.6049,100 81.0519,100.447 81.0519,101 L81.0519,105 C81.0519,105.553 80.6049,106 80.0519,106" id="Fill-44" fill="#7FDB65"></path>
                        <path d="M94.0528,102.249 C93.7068,102.249 93.3708,102.069 93.1858,101.749 L91.1858,98.284 C90.9088,97.806 91.0738,97.194 91.5518,96.918 C92.0288,96.641 92.6408,96.806 92.9178,97.284 L94.9178,100.749 C95.1948,101.228 95.0308,101.839 94.5518,102.115 C94.3948,102.206 94.2228,102.249 94.0528,102.249" id="Fill-45" fill="#7FDB65"></path>
                        <path d="M104.2999,92 C104.1299,92 103.9579,91.957 103.8009,91.866 L100.3359,89.866 C99.8579,89.59 99.6939,88.979 99.9699,88.5 C100.2469,88.022 100.8579,87.857 101.3359,88.134 L104.8009,90.134 C105.2789,90.41 105.4439,91.021 105.1669,91.5 C104.9819,91.82 104.6459,92 104.2999,92" id="Fill-46" fill="#7FDB65"></path>
                        <path d="M108.0519,78 L104.0519,78 C103.4989,78 103.0519,77.553 103.0519,77 C103.0519,76.447 103.4989,76 104.0519,76 L108.0519,76 C108.6049,76 109.0519,76.447 109.0519,77 C109.0519,77.553 108.6049,78 108.0519,78" id="Fill-47" fill="#7FDB65"></path>
                        <path d="M100.837,66 C100.491,66 100.155,65.82 99.97,65.5 C99.693,65.021 99.858,64.41 100.336,64.134 L103.801,62.134 C104.277,61.857 104.891,62.021 105.167,62.5 C105.443,62.979 105.279,63.59 104.801,63.866 L101.336,65.866 C101.179,65.957 101.007,66 100.837,66" id="Fill-48" fill="#7FDB65"></path>
                        <path d="M92.0509,57.2158 C91.8809,57.2158 91.7089,57.1728 91.5519,57.0818 C91.0729,56.8058 90.9089,56.1948 91.1859,55.7158 L93.1859,52.2508 C93.4619,51.7728 94.0739,51.6088 94.5519,51.8848 C95.0299,52.1608 95.1949,52.7728 94.9179,53.2508 L92.9179,56.7158 C92.7329,57.0358 92.3969,57.2158 92.0509,57.2158" id="Fill-49" fill="#7FDB65"></path>
                        <path d="M80.0519,79.5 C79.8099,79.5 79.5669,79.441 79.3459,79.323 L64.3459,71.323 C63.6149,70.934 63.3379,70.025 63.7289,69.294 C64.1169,68.563 65.0279,68.287 65.7579,68.677 L80.0309,76.289 L90.8139,70.194 C91.5329,69.787 92.4489,70.04 92.8579,70.762 C93.2659,71.483 93.0109,72.398 92.2899,72.806 L80.7899,79.306 C80.5609,79.436 80.3069,79.5 80.0519,79.5" id="Fill-50" fill="#7FDB65"></path>
                        <g id="Group-53" transform="translate(35.000000, 42.000000)" fill="#FFFFFF" opacity="0.5">
                            <polygon id="Fill-51" points="75.6857 0 2.7277 70 16.5867 70 89.5447 0"></polygon>
                            <polygon id="Fill-52" points="63.2394 0 0.0514 60.638 0.0514 66.754 69.6224 0"></polygon>
                        </g>
                        <path d="M36.052,111 L124.052,111 L124.052,43 L36.052,43 L36.052,111 Z M125.052,113 L35.052,113 C34.499,113 34.052,112.553 34.052,112 L34.052,42 C34.052,41.447 34.499,41 35.052,41 L125.052,41 C125.605,41 126.052,41.447 126.052,42 L126.052,112 C126.052,112.553 125.605,113 125.052,113 L125.052,113 Z" id="Fill-54" fill="#666666"></path>
                        <path d="M136.0538,74 C136.0268,74 135.9998,74 135.9738,74.001 C135.1728,74.021 134.4278,74.354 133.8758,74.935 C133.3248,75.517 133.0318,76.277 133.0528,77.078 C133.0738,77.879 133.4058,78.624 133.9868,79.176 C134.5688,79.728 135.3558,80.015 136.1298,79.999 C136.9308,79.979 137.6758,79.646 138.2278,79.065 C138.7798,78.483 139.0728,77.723 139.0508,76.922 C139.0308,76.121 138.6988,75.376 138.1168,74.824 C137.5548,74.291 136.8248,74 136.0538,74 M136.0498,82 C133.3528,82 131.1238,79.843 131.0528,77.131 C130.9818,74.374 133.1648,72.073 135.9208,72.001 C135.9648,72 136.0098,72 136.0538,72 C138.7508,72 140.9798,74.157 141.0508,76.869 C141.1218,79.626 138.9388,81.927 136.1828,81.999 C136.1388,82 136.0938,82 136.0498,82" id="Fill-55" fill="#999999"></path>
                        <path d="M30.88,42.8281 C32.442,41.2661 32.442,38.7331 30.88,37.1721 C29.318,35.6091 26.785,35.6091 25.224,37.1721 C23.661,38.7331 23.661,41.2661 25.224,42.8281 C26.785,44.3901 29.318,44.3901 30.88,42.8281" id="Fill-56" fill="#CCCCCC"></path>
                        <path d="M28.0519,42 C27.4989,42 27.0519,41.553 27.0519,41 L27.0519,39 C27.0519,38.447 27.4989,38 28.0519,38 C28.6049,38 29.0519,38.447 29.0519,39 L29.0519,41 C29.0519,41.553 28.6049,42 28.0519,42" id="Fill-57" fill="#FFFFFF"></path>
                        <path d="M140.0519,44 C142.2609,44 144.0519,42.209 144.0519,40 C144.0519,37.791 142.2609,36 140.0519,36 C137.8429,36 136.0519,37.791 136.0519,40 C136.0519,42.209 137.8429,44 140.0519,44" id="Fill-58" fill="#CCCCCC"></path>
                        <path d="M139.3448,41.707 C139.0888,41.707 138.8328,41.609 138.6378,41.414 C138.2468,41.023 138.2468,40.391 138.6378,40 L140.0518,38.586 C140.4428,38.195 141.0748,38.195 141.4658,38.586 C141.8568,38.977 141.8568,39.609 141.4658,40 L140.0518,41.414 C139.8568,41.609 139.6008,41.707 139.3448,41.707" id="Fill-59" fill="#FFFFFF"></path>
                        <path d="M143.711,112.3838 C142.818,110.3628 140.457,109.4478 138.436,110.3408 C136.415,111.2338 135.5,113.5948 136.393,115.6158 C137.285,117.6368 139.647,118.5518 141.668,117.6588 C143.689,116.7668 144.604,114.4048 143.711,112.3838" id="Fill-60" fill="#CCCCCC"></path>
                        <path d="M140.9845,115.3613 C140.8645,115.3613 140.7425,115.3403 140.6235,115.2943 L138.7575,114.5713 C138.2435,114.3723 137.9875,113.7923 138.1865,113.2773 C138.3855,112.7613 138.9645,112.5073 139.4805,112.7063 L141.3455,113.4283 C141.8605,113.6283 142.1165,114.2083 141.9175,114.7223 C141.7635,115.1193 141.3845,115.3613 140.9845,115.3613" id="Fill-61" fill="#FFFFFF"></path>
                        <path d="M28.672,117.9512 C30.855,117.6092 32.346,115.5622 32.003,113.3802 C31.661,111.1972 29.614,109.7062 27.432,110.0492 C25.249,110.3902 23.758,112.4372 24.101,114.6202 C24.443,116.8032 26.489,118.2942 28.672,117.9512" id="Fill-62" fill="#CCCCCC"></path>
                        <path d="M27.462,115.8086 C27.258,115.8086 27.052,115.7466 26.874,115.6176 C26.428,115.2916 26.329,114.6656 26.654,114.2196 L27.832,112.6026 C28.157,112.1566 28.783,112.0596 29.23,112.3826 C29.676,112.7076 29.775,113.3336 29.449,113.7806 L28.272,115.3976 C28.075,115.6656 27.771,115.8086 27.462,115.8086" id="Fill-63" fill="#FFFFFF"></path>
                        <path d="M8.0519,83 C6.9479,83 6.0519,82.104 6.0519,81 L6.0519,71.498 C6.1039,67.556 8.4689,62.842 12.8889,61.407 C15.2529,60.638 17.7459,60.977 19.5549,62.31 C21.1689,63.5 22.0789,65.379 22.0509,67.465 L22.0519,75.84 C22.0519,76.944 21.1559,77.84 20.0519,77.84 C18.9479,77.84 18.0519,76.944 18.0519,75.84 L18.0509,67.437 C18.0619,66.596 17.7699,65.963 17.1819,65.53 C16.4069,64.958 15.2629,64.842 14.1239,65.212 C11.6159,66.025 10.0839,69.061 10.0519,71.524 L10.0519,81 C10.0519,82.104 9.1559,83 8.0519,83" id="Fill-64" fill="#DDDDDD"></path>
                        <path d="M21.0519,68 L20.0519,68 L20.0519,67.976 L20.0519,67.972 L20.0519,67.969 L20.0519,67.965 L20.0519,67.963 L20.0519,67.961 L20.0519,67.959 L20.0519,67.957 L20.0519,67.955 L20.0519,67.953 L20.0519,67.952 L20.0519,67.951 L20.0519,67.95 L20.0519,67.949 L20.0519,67.948 L20.0519,67.946 L20.0519,67.945 L20.0519,67.944 L20.0519,67.943 L20.0519,67.942 L20.0519,67.941 L20.0519,67.94 L20.0519,67.939 L20.0519,67.938 L20.0519,67.938 L20.0519,67.937 L20.0519,67.936 L20.0519,67.935 L20.0519,67.934 L20.0519,67.933 L20.0519,67.932 L20.0519,67.93 L20.0519,67.929 L20.0519,67.928 L20.0519,67.927 L20.0519,67.926 L20.0519,67.924 L20.0519,67.922 L20.0519,67.921 L20.0519,67.919 L20.0519,67.918 L20.0519,67.916 L20.0519,67.914 L20.0519,67.913 L20.0519,67.908 L20.0519,67.907 C20.0519,67.725 20.0519,67.331 20.0509,67.286 L20.0509,67.278 C20.0509,67.006 20.2689,66.782 20.5419,66.778 C20.7809,66.764 21.0459,66.991 21.0509,67.269 C21.0519,67.314 21.0519,67.821 21.0519,67.963 L21.0519,67.964 L21.0519,67.968 L21.0519,67.971 L21.0519,67.973 L21.0519,67.975 L21.0519,67.976 L21.0519,67.977 L21.0519,67.978 L21.0519,67.979 L21.0519,67.979 L21.0519,67.98 L21.0519,67.981 L21.0519,67.982 L21.0519,67.983 L21.0519,67.984 L21.0519,67.985 L21.0519,67.986 L21.0519,67.987 L21.0519,67.988 L21.0519,67.989 L21.0519,67.99 L21.0519,67.991 L21.0519,67.992 L21.0519,67.993 L21.0519,67.994 L21.0519,67.995 L21.0519,67.996 L21.0519,67.997 L21.0519,67.998 L21.0519,67.999 L21.0519,68 Z" id="Fill-65" fill="#FFFFFF"></path>
                        <path d="M8.5519,79.5 C8.2759,79.5 8.0519,79.276 8.0519,79 L8.0519,73 C8.0519,72.724 8.2759,72.5 8.5519,72.5 C8.8279,72.5 9.0519,72.724 9.0519,73 L9.0519,79 C9.0519,79.276 8.8279,79.5 8.5519,79.5" id="Fill-66" fill="#FFFFFF"></path>
                        <path d="M20.5519,65.999 C20.3439,65.999 20.1489,65.868 20.0779,65.659 C20.0409,65.551 19.1459,63 16.5519,63 C16.2759,63 16.0519,62.776 16.0519,62.5 C16.0519,62.224 16.2759,62 16.5519,62 C19.2099,62 20.6409,64.186 21.0269,65.342 C21.1139,65.603 20.9729,65.886 20.7109,65.974 C20.6579,65.991 20.6049,65.999 20.5519,65.999" id="Fill-67" fill="#FFFFFF"></path>
                        <path d="M11.6554,64.2617 C11.3844,63.2437 11.4424,62.4937 11.5834,61.9637 C10.2664,62.6477 9.1744,63.6347 8.3204,64.7947 C8.3654,65.6917 8.6014,66.5497 9.0514,66.9997 C9.6504,67.5987 10.2534,67.8357 11.0654,67.9317 C11.4694,67.2147 11.9874,66.5747 12.6044,66.0707 C12.2174,65.5507 11.8374,64.9437 11.6554,64.2617" id="Fill-68" fill="#999999"></path>
                        <path d="M15.4112,62.001 C14.6822,62.001 13.9342,62.118 13.1982,62.358 C9.2242,63.647 7.0982,67.938 7.0522,71.511 L7.0522,81 C7.0522,81.552 7.5002,82 8.0522,82 C8.6032,82 9.0522,81.552 9.0522,81 L9.0522,71.524 C9.0882,68.733 10.7702,65.249 13.8152,64.261 C15.2632,63.79 16.7442,63.965 17.7762,64.726 C18.3672,65.161 19.0692,65.987 19.0512,67.45 L19.0522,75.84 C19.0522,76.392 19.5002,76.84 20.0522,76.84 C20.6032,76.84 21.0522,76.392 21.0522,75.84 L21.0512,67.465 C21.0752,65.692 20.3132,64.111 18.9612,63.114 C17.9652,62.38 16.7202,62.001 15.4112,62.001 M8.0522,84 C6.3972,84 5.0522,82.654 5.0522,81 L5.0522,71.498 C5.1082,67.2 7.7122,62.036 12.5802,60.456 C15.2502,59.589 18.0792,59.98 20.1482,61.505 C22.0252,62.89 23.0832,65.066 23.0512,67.479 L23.0522,75.84 C23.0522,77.494 21.7062,78.84 20.0522,78.84 C18.3972,78.84 17.0522,77.494 17.0522,75.84 L17.0512,67.438 C17.0592,66.767 16.8082,66.497 16.5892,66.336 C16.0822,65.961 15.2562,65.895 14.4332,66.163 C12.3792,66.829 11.0792,69.472 11.0522,71.537 L11.0522,81 C11.0522,82.654 9.7062,84 8.0522,84" id="Fill-69" fill="#666666"></path>
                        <path d="M16.4249,69 L16.4109,69 C13.0669,68.953 10.3809,66.256 10.4249,62.986 C10.4459,61.386 11.0799,59.88 12.2079,58.745 C13.3299,57.618 14.8019,57 16.3589,57 L16.4389,57 C16.9899,57.008 17.4329,57.461 17.4249,58.014 C17.4169,58.562 16.9709,59 16.4249,59 C16.4059,58.999 16.3809,59 16.3599,59 C15.3379,59 14.3689,59.409 13.6259,60.156 C12.8659,60.92 12.4399,61.936 12.4249,63.014 C12.3959,65.181 14.1959,66.969 16.4389,67 C16.9909,67.008 17.4329,67.462 17.4249,68.014 C17.4169,68.562 16.9709,69 16.4249,69" id="Fill-70" fill="#666666"></path>
                        <path d="M17.9523,90.582 L4.1753,95.723 L4.1753,81.58 C4.1753,80.742 4.7343,79.987 5.5933,79.667 L17.9523,75.056 L17.9523,90.582 Z" id="Fill-71" fill="#DDDDDD"></path>
                        <path d="M16.9523,76.496 L5.9423,80.603 C5.4763,80.778 5.1753,81.161 5.1753,81.58 L5.1753,94.282 L16.9523,89.888 L16.9523,76.496 Z M5.1753,96.282 C4.7723,96.282 4.3733,96.16 4.0343,95.925 C3.4963,95.552 3.1753,94.937 3.1753,94.282 L3.1753,81.58 C3.1753,80.317 3.9863,79.199 5.2433,78.73 L17.6023,74.119 C17.9093,74.003 18.2533,74.047 18.5223,74.234 C18.7923,74.421 18.9523,74.728 18.9523,75.056 L18.9523,90.582 C18.9523,90.999 18.6923,91.373 18.3023,91.519 L5.8743,96.155 C5.6473,96.24 5.4103,96.282 5.1753,96.282 L5.1753,96.282 Z" id="Fill-72" fill="#666666"></path>
                        <path d="M24.8409,90.5557 L11.0639,95.7227 L9.7059,95.7227 C8.5919,95.7227 8.3129,94.1757 9.3559,93.7847 L17.9519,90.5727 L24.8409,90.5557 Z" id="Fill-73" fill="#999999"></path>
                        <path d="M9.8351,94.6357 L10.9161,94.7097 L19.2911,91.5697 L18.1321,91.5727 L9.8351,94.6357 Z M11.0641,96.7227 C11.0411,96.7227 11.0181,96.7217 10.9951,96.7207 L5.0461,96.3107 C4.5751,96.2777 4.1911,95.9207 4.1241,95.4537 C4.0581,94.9877 4.3251,94.5377 4.7681,94.3737 L17.6061,89.6337 C17.7161,89.5937 17.8321,89.5727 17.9501,89.5727 L24.8391,89.5557 L24.8411,89.5557 C25.3241,89.5557 25.7371,89.9007 25.8241,90.3757 C25.9111,90.8527 25.6461,91.3227 25.1921,91.4917 L11.4151,96.6587 C11.3021,96.7007 11.1841,96.7227 11.0641,96.7227 L11.0641,96.7227 Z" id="Fill-74" fill="#666666"></path>
                        <path d="M24.8409,90.5557 L17.9519,90.5557 L17.9519,75.0557 L22.8409,75.0557 C23.9449,75.0557 24.8409,75.9517 24.8409,77.0557 L24.8409,90.5557 Z" id="Fill-75" fill="#FFFFFF"></path>
                        <path d="M18.9523,89.5557 L23.8413,89.5557 L23.8413,77.0557 C23.8413,76.5037 23.3923,76.0557 22.8413,76.0557 L18.9523,76.0557 L18.9523,89.5557 Z M24.8413,91.5557 L17.9523,91.5557 C17.3993,91.5557 16.9523,91.1087 16.9523,90.5557 L16.9523,75.0557 C16.9523,74.5027 17.3993,74.0557 17.9523,74.0557 L22.8413,74.0557 C24.4953,74.0557 25.8413,75.4017 25.8413,77.0557 L25.8413,90.5557 C25.8413,91.1087 25.3933,91.5557 24.8413,91.5557 L24.8413,91.5557 Z" id="Fill-76" fill="#666666"></path>
                    </g>
                </g>
            </g>
        </g>
    </g>
</svg>